<?xml version="1.0" encoding="UTF-8"?>
<svg id="Layer_1" data-name="Layer 1" xmlns="http://www.w3.org/2000/svg" xmlns:xlink="http://www.w3.org/1999/xlink" viewBox="0 0 360 505.81">
  <defs>
    <style>
      .cls-1 {
        fill: #fee9a6;
      }

      .cls-1, .cls-2, .cls-3 {
        stroke-width: 0px;
      }

      .cls-2 {
        fill: #fecb6f;
      }

      .cls-3 {
        fill: none;
      }

      .cls-4 {
        opacity: .4;
      }

      .cls-5 {
        clip-path: url(#clippath);
      }
    </style>
    <clipPath id="clippath">
      <rect class="cls-3" x="152.72" y="34.32" width="209" height="285"/>
    </clipPath>
  </defs>
  <g class="cls-4">
    <rect class="cls-1" x="44.35" y="-217.36" width="872.15" height="486.71" rx="62.75" ry="62.75" transform="translate(122.33 347.33) rotate(-45)"/>
  </g>
  <g class="cls-5">
    <g>
      <path class="cls-2" d="M353.05,131.08c3.69,0,6.69-2.99,6.69-6.69s-2.99-6.69-6.69-6.69-6.69,2.99-6.69,6.69,2.99,6.69,6.69,6.69Z"/>
      <path class="cls-2" d="M308.48,175.65c3.69,0,6.69-2.99,6.69-6.69s-2.99-6.69-6.69-6.69-6.69,2.99-6.69,6.69,2.99,6.69,6.69,6.69Z"/>
      <path class="cls-2" d="M330.77,153.37c3.69,0,6.69-2.99,6.69-6.69s-2.99-6.69-6.69-6.69-6.69,2.99-6.69,6.69,2.99,6.69,6.69,6.69Z"/>
      <path class="cls-2" d="M353.05,175.65c3.69,0,6.69-2.99,6.69-6.69s-2.99-6.69-6.69-6.69-6.69,2.99-6.69,6.69,2.99,6.69,6.69,6.69Z"/>
      <path class="cls-2" d="M263.9,220.23c3.69,0,6.69-2.99,6.69-6.69s-2.99-6.69-6.69-6.69-6.69,2.99-6.69,6.69,2.99,6.69,6.69,6.69Z"/>
      <path class="cls-2" d="M286.19,197.94c3.69,0,6.69-2.99,6.69-6.69s-2.99-6.69-6.69-6.69-6.69,2.99-6.69,6.69,2.99,6.69,6.69,6.69Z"/>
      <path class="cls-2" d="M308.48,220.23c3.69,0,6.69-2.99,6.69-6.69s-2.99-6.69-6.69-6.69-6.69,2.99-6.69,6.69,2.99,6.69,6.69,6.69Z"/>
      <path class="cls-2" d="M330.77,197.94c3.69,0,6.69-2.99,6.69-6.69s-2.99-6.69-6.69-6.69-6.69,2.99-6.69,6.69,2.99,6.69,6.69,6.69Z"/>
      <path class="cls-2" d="M353.05,220.23c3.69,0,6.69-2.99,6.69-6.69s-2.99-6.69-6.69-6.69-6.69,2.99-6.69,6.69,2.99,6.69,6.69,6.69Z"/>
      <path class="cls-2" d="M286.19,242.52c3.69,0,6.69-2.99,6.69-6.69s-2.99-6.69-6.69-6.69-6.69,2.99-6.69,6.69,2.99,6.69,6.69,6.69Z"/>
      <path class="cls-2" d="M308.48,264.81c3.69,0,6.69-2.99,6.69-6.69s-2.99-6.69-6.69-6.69-6.69,2.99-6.69,6.69,2.99,6.69,6.69,6.69Z"/>
      <path class="cls-2" d="M330.77,242.52c3.69,0,6.69-2.99,6.69-6.69s-2.99-6.69-6.69-6.69-6.69,2.99-6.69,6.69,2.99,6.69,6.69,6.69Z"/>
      <path class="cls-2" d="M353.05,264.81c3.69,0,6.69-2.99,6.69-6.69s-2.99-6.69-6.69-6.69-6.69,2.99-6.69,6.69,2.99,6.69,6.69,6.69Z"/>
      <path class="cls-2" d="M330.77,287.09c3.69,0,6.69-2.99,6.69-6.69s-2.99-6.69-6.69-6.69-6.69,2.99-6.69,6.69,2.99,6.69,6.69,6.69Z"/>
      <path class="cls-2" d="M353.05,309.38c3.69,0,6.69-2.99,6.69-6.69s-2.99-6.69-6.69-6.69-6.69,2.99-6.69,6.69,2.99,6.69,6.69,6.69Z"/>
    </g>
  </g>
</svg>